<svg fill="none" height="14" viewBox="0 0 110 14" width="110" xmlns="http://www.w3.org/2000/svg"><path d="m0 0h110v14h-110z" fill="#000"/><g fill="#fff"><path d="m100 6.57143v-2.57143h.857.857v2.57143 2.57143h1.286 1.286v-2.57143-2.57143h.857.857v2.57143 2.57143h-.429-.428v.42857.42857h-2.143-2.143v-.42857-.42857h-.428-.429z"/><path d="m94 4.42857v-.42857h2.1429 2.1428v.42857.42857h.4286.4286v2.14286 2.14286h-.4286-.4286v.42857.42857h-2.1428-2.1429v-.42857-.42857h-.4286-.4285v-2.14286-2.14286h.4285.4286zm3.4286 2.57143v-2.14286h-1.2857-1.2858v2.14286 2.14286h1.2858 1.2857z"/><path d="m87.1429 5.28571v-1.28571h.8571.8571v1.28571 1.28572h.8572.8571v-1.28572-1.28571h.8572.8571v1.28571 1.28572h-.4286-.4285v.42857.42857h-.4286-.4286v1.28572 1.28571h-.8571-.8572v-1.28571-1.28572h-.4285-.4286v-.42857-.42857h-.4286-.4285z"/><path d="m73.4286 4.42857v-.42857h1.7143 1.7142v.42857.42857h.4286.4286v.42857.42858h-.8572-.8571v-.42858-.42857h-.8571-.8572v.85715.85714h1.7143 1.7143v.42857.42857h.4286.4285v.85714.85715h-.4285-.4286v.42857.42857h-2.1429-2.1428v-.42857-.42857h-.4286-.4286v-.42857-.42858h.8572.8571v.42858.42857h1.2857 1.2857v-.85715-.85714h-1.7142-1.7143v-.42857-.42857h-.4286-.4286v-.85714-.85715h.4286.4286z"/><path d="m66.5714 4.42857v-.42857h2.5715 2.5714v.42857.42857h-.8572-.8571v2.14286 2.14286h.8571.8572v.42857.42857h-2.5714-2.5715v-.42857-.42857h.8572.8571v-2.14286-2.14286h-.8571-.8572z"/><path d="m52 7v-3h2.5714 2.5715v.42857.42857h.4285.4286v1.28572 1.28571h-.8571-.8572v.42857.42857h.4286.4286v.42858.42857h.4285.4286v.42857.42857h-1.2857-1.2857v-.42857-.42857h-.4286-.4286v-.42857-.42858h-.4285-.4286v.85715.85714h-.8572-.8571zm4.2857-1.28571v-.85715h-1.2857-1.2857v1.28572 1.28571h.8571.8572v-.42857-.42857h.4285.4286z"/><path d="m45.1429 7v-3h3 3v.42857.42857h-2.1429-2.1429v.85715.85714h1.7143 1.7143v.42857.42857h-1.7143-1.7143v.85714.85715h2.1429 2.1429v.42857.42857h-3-3z"/><path d="m38.2857 7v-3h.8572.8571v.42857.42857h.4286.4285v.42857.42858h.4286.4286v.42857.42857h.4286.4285v-1.28572-1.28571h.8572.8571v3 3h-.8571-.8572v-.42857-.42857h-.4285-.4286v-.42857-.42858h-.4286-.4286v-.42857-.42857h-.4285-.4286v1.28572 1.28571h-.8571-.8572z"/><path d="m31.4286 7v-3h.8571.8572v.42857.42857h.4285.4286v.42857.42858h.4286.4285v.42857.42857h.4286.4286v-1.28572-1.28571h.8571.8572v3 3h-.8572-.8571v-.42857-.42857h-.4286-.4286v-.42857-.42858h-.4285-.4286v-.42857-.42857h-.4286-.4285v1.28572 1.28571h-.8572-.8571z"/><path d="m25.4286 4.42857v-.42857h2.5714 2.5714v.42857.42857h-.8571-.8572v2.14286 2.14286h.8572.8571v.42857.42857h-2.5714-2.5714v-.42857-.42857h.8571.8572v-2.14286-2.14286h-.8572-.8571z"/><path d="m17.7143 7v-3h.8571.8572v1.28571 1.28572h.4285.4286v-.42857-.42857h.4286.4286v.42857.42857h.4285.4286v-1.28572-1.28571h.8571.8572v3 3h-.8572-.8571v-.42857-.42857h-.4286-.4285v-.42857-.42858h-.4286-.4286v.42858.42857h-.4286-.4285v.42857.42857h-.8572-.8571z"/><path d="m5.71429 4.42857v-.42857h1.28571 1.28571v.42857.42857h.42858.42857v.42857.42858h.42857.42857v2.14285 2.14286h-.85714-.85715v-.85714-.85715h-1.28571-1.28571v.85715.85714h-.85715-.85714v-2.14286-2.14285h.42857.42857v-.42858-.42857h.42857.42858zm1.71428.85714v-.42857h-.42857-.42857v.42857.42858h-.42857-.42857v.85714.85714h1.28571 1.28571v-.85714-.85714h-.42857-.42857z"/></g></svg>